<!DOCTYPE svg PUBLIC "-//W3C//DTD SVG 1.1//EN" "http://www.w3.org/Graphics/SVG/1.1/DTD/svg11.dtd">
<!-- Uploaded to: SVG Repo, www.svgrepo.com, Transformed by: SVG Repo Mixer Tools -->
<svg fill="#000000" height="800px" width="800px" version="1.1" id="Layer_1" xmlns="http://www.w3.org/2000/svg" xmlns:xlink="http://www.w3.org/1999/xlink" viewBox="0 0 512 512" xml:space="preserve">
<g id="SVGRepo_bgCarrier" stroke-width="0"/>
<g id="SVGRepo_tracerCarrier" stroke-linecap="round" stroke-linejoin="round"/>
<g id="SVGRepo_iconCarrier"> <g> <g> <path d="M438.483,372.364h-26.669V158.16C411.814,70.949,340.865,0,253.659,0H86.661C73.809,0,63.389,10.42,63.389,23.273 c0,12.853,10.42,23.273,23.273,23.273h13.521v187.988c0,12.853,10.42,23.273,23.273,23.273h39.201 c6.173,0,12.093-2.453,16.455-6.817l32.084-32.082v56.076l-97.379,97.381H73.517c-12.853,0-23.273,10.42-23.273,23.273v93.091 c0,12.853,10.42,23.273,23.273,23.273h364.966c12.853,0,23.273-10.42,23.273-23.273v-93.091 C461.756,382.784,451.336,372.364,438.483,372.364z M250.925,301.079c4.366-4.364,6.817-10.283,6.817-16.457V162.721 c0-9.413-5.669-17.9-14.367-21.501c-8.693-3.601-18.707-1.612-25.363,5.044l-64.996,64.995h-6.288V46.545h106.93 c61.541,0,111.61,50.069,111.61,111.614v214.204H179.641L250.925,301.079z M415.21,465.455H96.79v-46.545H415.21V465.455z"/> </g> </g> </g>
</svg>