<!DOCTYPE svg PUBLIC "-//W3C//DTD SVG 1.1//EN" "http://www.w3.org/Graphics/SVG/1.1/DTD/svg11.dtd">
<!-- Uploaded to: SVG Repo, www.svgrepo.com, Transformed by: SVG Repo Mixer Tools -->
<svg fill="#000000" version="1.1" id="Capa_1" xmlns="http://www.w3.org/2000/svg" xmlns:xlink="http://www.w3.org/1999/xlink" width="201px" height="201px" viewBox="0 0 39.477 39.477" xml:space="preserve">
<g id="SVGRepo_bgCarrier" stroke-width="0"/>
<g id="SVGRepo_tracerCarrier" stroke-linecap="round" stroke-linejoin="round"/>
<g id="SVGRepo_iconCarrier"> <g> <path d="M28.21,33.188v-4.809h-2.271v-10.33h2.271v-6.29h-0.828c0.097-0.089,0.188-0.179,0.271-0.27 c1.369-1.516,2.054-3.318,1.873-4.945c-0.121-1.122-0.668-2.081-1.537-2.698c-1.104-0.786-2.582-0.927-4.071-0.531 C23.331,1.395,21.688,0,19.737,0c-1.951,0-3.592,1.396-4.179,3.312c-1.492-0.396-2.968-0.254-4.073,0.532 c-0.869,0.617-1.416,1.576-1.538,2.698c-0.179,1.627,0.505,3.429,1.874,4.945c0.076,0.084,0.169,0.176,0.268,0.269h-0.823v6.29 h2.271v10.332h-2.271v4.81H8.393v6.289h22.691v-6.289H28.21L28.21,33.188L28.21,33.188z M26.831,5.477 c0.407,0.291,0.646,0.723,0.709,1.286c0.112,1.044-0.398,2.31-1.369,3.385c-0.461,0.509-1.502,1.171-2.345,1.611h-2.753 c0.133-0.331,0.234-0.676,0.275-1.05c0.1-0.904-0.076-1.86-0.479-2.793c0.18-0.279,0.379-0.552,0.612-0.812 C23.102,5.313,25.551,4.569,26.831,5.477z M19.737,2.002c1.116,0,2.048,0.89,2.33,2.09c-0.737,0.43-1.443,0.985-2.067,1.673 c-0.094,0.104-0.168,0.216-0.256,0.322c-0.089-0.108-0.172-0.218-0.268-0.323c-0.622-0.688-1.328-1.243-2.067-1.673 C17.689,2.89,18.621,2.002,19.737,2.002z M13.305,10.15c-0.973-1.076-1.485-2.342-1.371-3.386c0.062-0.563,0.301-0.995,0.709-1.286 c1.279-0.908,3.729-0.164,5.348,1.628c0.973,1.076,1.485,2.342,1.37,3.386c-0.062,0.553-0.294,0.978-0.69,1.268h-3.316 C14.657,11.3,13.678,10.562,13.305,10.15z M13.264,13.759h1.515c0.015,0.008,0.032,0.02,0.045,0.027l0.017-0.027h11.37v2.29H13.265 L13.264,13.759L13.264,13.759z M23.938,18.05v10.253h-8.403V18.05H23.938z M13.264,30.381H26.21v2.29H13.264V30.381L13.264,30.381z M29.083,37.479H10.392v-2.291h18.691V37.479z"/> </g> </g>
</svg>